<?xml version="1.0" standalone="no"?>
<!DOCTYPE svg PUBLIC "-//W3C//DTD SVG 20010904//EN"
 "http://www.w3.org/TR/2001/REC-SVG-20010904/DTD/svg10.dtd">
<svg version="1.0" xmlns="http://www.w3.org/2000/svg"
 width="404.000000pt" height="404.000000pt" viewBox="0 0 404.000000 404.000000"
 preserveAspectRatio="xMidYMid meet">
<metadata>
Created by potrace 1.14, written by Peter Selinger 2001-2017
</metadata>
<g transform="translate(0.000000,404.000000) scale(0.100000,-0.100000)"
fill="#000000" stroke="none">
<path d="M310 4026 c-148 -42 -258 -158 -290 -306 -8 -41 -10 -400 -8 -1381
l3 -1325 37 -76 c69 -138 184 -214 345 -226 l88 -7 8 -84 c25 -284 127 -418
352 -466 104 -21 2616 -23 2716 -1 128 28 224 95 277 194 65 122 65 118 66
747 0 314 -2 890 -5 1280 -5 639 -7 716 -23 765 -35 108 -105 196 -192 239
-45 23 -183 61 -221 61 -23 0 -23 1 -23 115 0 130 -12 199 -47 269 -30 59
-106 137 -161 165 -104 53 -51 51 -1517 50 -1056 -1 -1370 -4 -1405 -13z
m1700 -701 c100 -15 305 -62 363 -84 l27 -11 0 -146 c0 -135 -1 -146 -17 -139
-10 5 -58 23 -106 42 -550 212 -945 66 -1077 -397 -34 -116 -38 -300 -11 -413
50 -211 179 -400 322 -473 94 -47 192 -67 334 -66 72 0 159 5 195 12 56 9 290
75 343 95 16 7 17 -4 17 -142 l0 -149 -102 -27 c-157 -42 -231 -56 -380 -68
-329 -28 -588 58 -800 265 -253 247 -350 661 -242 1033 72 249 259 472 492
588 74 36 182 72 259 85 80 13 271 11 383 -5z"/>
</g>
</svg>
